<svg width="20" height="18" viewBox="0 0 20 18" fill="none" xmlns="http://www.w3.org/2000/svg">
<path d="M18.4375 2.75H15V0.5625H13.75V2.75H6.25V0.5625H5V2.75H1.5625C1.31395 2.75029 1.07566 2.84915 0.899907 3.02491C0.724154 3.20066 0.625289 3.43895 0.625 3.6875V16.8125C0.625289 17.0611 0.724154 17.2993 0.899907 17.4751C1.07566 17.6508 1.31395 17.7497 1.5625 17.75H18.4375C18.6861 17.7497 18.9243 17.6508 19.1001 17.4751C19.2758 17.2993 19.3747 17.0611 19.375 16.8125V3.6875C19.3747 3.43895 19.2758 3.20066 19.1001 3.02491C18.9243 2.84915 18.6861 2.75029 18.4375 2.75ZM18.125 16.5H1.875V4H5V5.5625H6.25V4H13.75V5.5625H15V4H18.125V16.5Z" fill="white"/>
<path d="M4.375 7.75H5.625V9H4.375V7.75Z" fill="white"/>
<path d="M7.8125 7.75H9.0625V9H7.8125V7.75Z" fill="white"/>
<path d="M10.9375 7.75H12.1875V9H10.9375V7.75Z" fill="white"/>
<path d="M14.375 7.75H15.625V9H14.375V7.75Z" fill="white"/>
<path d="M4.375 10.5625H5.625V11.8125H4.375V10.5625Z" fill="white"/>
<path d="M7.8125 10.5625H9.0625V11.8125H7.8125V10.5625Z" fill="white"/>
<path d="M10.9375 10.5625H12.1875V11.8125H10.9375V10.5625Z" fill="white"/>
<path d="M14.375 10.5625H15.625V11.8125H14.375V10.5625Z" fill="white"/>
<path d="M4.375 13.375H5.625V14.625H4.375V13.375Z" fill="white"/>
<path d="M7.8125 13.375H9.0625V14.625H7.8125V13.375Z" fill="white"/>
<path d="M10.9375 13.375H12.1875V14.625H10.9375V13.375Z" fill="white"/>
<path d="M14.375 13.375H15.625V14.625H14.375V13.375Z" fill="white"/>
</svg>
